<?xml version="1.0" standalone="no"?>
<!DOCTYPE svg PUBLIC "-//W3C//DTD SVG 20010904//EN"
 "http://www.w3.org/TR/2001/REC-SVG-20010904/DTD/svg10.dtd">
<svg version="1.0" xmlns="http://www.w3.org/2000/svg"
 width="600.000000pt" height="600.000000pt" viewBox="0 0 600.000000 600.000000"
 preserveAspectRatio="xMidYMid meet">
<metadata>
Created by potrace 1.16, written by Peter Selinger 2001-2019
</metadata>
<g transform="translate(0.000000,600.000000) scale(0.100000,-0.100000)"
fill="#000000" stroke="none">
<path d="M2580 5636 c0 -8 612 -1831 619 -1843 4 -7 161 304 351 692 189 388
347 705 350 705 4 0 158 -314 344 -697 186 -384 341 -701 345 -705 4 -4 147
411 319 922 l311 930 -1319 0 c-726 0 -1320 -2 -1320 -4z"/>
<path d="M2940 3381 c-51 -17 -106 -50 -143 -88 -165 -163 -117 -452 91 -555
39 -19 63 -23 142 -23 83 0 101 4 145 27 199 104 248 371 98 538 -66 74 -129
103 -228 106 -44 2 -91 0 -105 -5z"/>
<path d="M4720 3381 c-175 -54 -280 -237 -236 -411 41 -160 166 -260 327 -260
125 0 233 70 291 188 30 60 33 76 33 153 0 79 -3 92 -35 154 -61 120 -169 186
-299 184 -31 0 -67 -4 -81 -8z"/>
<path d="M1129 3357 c-88 -33 -164 -103 -203 -186 -30 -66 -30 -216 1 -283 29
-63 97 -134 158 -166 65 -33 181 -42 249 -19 155 53 257 222 228 379 -22 118
-88 210 -187 258 -60 30 -188 38 -246 17z"/>
<path d="M3734 2828 c-87 -268 -296 -457 -566 -512 -42 -9 -103 -16 -135 -16
l-58 -1 -45 -67 c-281 -419 -700 -756 -1164 -937 l-116 -46 -42 22 c-259 131
-444 348 -518 611 -25 86 -36 275 -23 360 9 53 8 57 -11 62 -12 3 -24 6 -27 6
-9 0 -149 -302 -198 -426 -190 -479 -165 -969 63 -1246 68 -82 157 -149 271
-204 135 -66 224 -86 380 -86 293 -1 541 85 1205 417 684 343 913 423 1418
500 296 45 428 74 549 120 242 94 407 272 475 512 38 135 29 335 -22 467 l-9
25 -68 -29 c-384 -161 -817 23 -973 412 -16 42 -30 83 -30 92 0 14 -22 16
-169 16 l-169 0 -18 -52z"/>
</g>
</svg>
