<svg xmlns="http://www.w3.org/2000/svg" width="999.999599469032" height="627.595708795471" viewBox="0 0 264.58322 166.05136"><style><![CDATA[.B{fill:#003b90}]]></style><defs><clipPath id="A"><path d="M0 0h1247.24v841.89H0z"/></clipPath><clipPath id="B"><path d="M0 0h1247.24v841.89H0z"/></clipPath><clipPath id="C"><path d="M0 0h1247.24v841.89H0z"/></clipPath><clipPath id="D"><path d="M0 0h1247.24v841.89H0z"/></clipPath><clipPath id="E"><path d="M0 0h1247.24v841.89H0z"/></clipPath><clipPath id="F"><path d="M0 0h1247.24v841.89H0z"/></clipPath><clipPath id="G"><path d="M0 0h1247.24v841.89H0z"/></clipPath><clipPath id="H"><path d="M0 0h1247.24v841.89H0z"/></clipPath><clipPath id="I"><path d="M0 0h1247.24v841.89H0z"/></clipPath><clipPath id="J"><path d="M0 0h1247.24v841.89H0z"/></clipPath><clipPath id="K"><path d="M0 0h1247.24v841.89H0z"/></clipPath><clipPath id="L"><path d="M0 0h1247.24v841.89H0z"/></clipPath><clipPath id="M"><path d="M0 0h1247.24v841.89H0z"/></clipPath></defs><g clip-path="url(#A)" transform="matrix(2.5224239999999996 0 0 -2.5224239999999996 -2774.2444760000003 2016.35006)"><path d="M1134.7942 776.8079l2.446 8.165h-8.276l-3.359-11.097c-1.11-.082-4.238-.606-5.657 1.423-3.701 5.548 6.978 15.039 6.978 15.039s6.228 5.701 12.351 9.032c0 0-6.23-2.347-13.085-7.44-4.576-3.402-7.469-6.724-8.702-9.072-2.384-4.535-2.627-9.588 1.778-11.911 5.073-2.676 14.898-.25 24.448 6.42 0 0 6.302 3.979 9.163 7.606h-8.281s-3.793-5.15-9.804-8.165" fill="#008cba"/><path d="M1132.4275 769.0801l-2.787-9.207h-8.304l2.71 8.957s7.505-.533 15.048 3.238l5.195-12.215h-8.219z" class="B"/></g><path d="M207.003044 99.67929h-21.072330096l17.356799544-63.36329088h20.661174984zm-58.47481-63.36304l-32.125592064 63.36329088h20.875581024l4.568109864-10.26626568h16.920420192l.792041136 10.26626568h20.870536176L171.409142104 36.31625zm-.509529648 39.233782896l8.225624664-18.474233376 1.435259256 18.474233376zM204.424904 110.98329H50.753789072l1.957401024-6.5583024h153.524814336zM2.649631 153.96845h2.696475v10.10735H2.649631zm5.52666 0h3.044546l-2.941155 4.73714 3.289226 5.37021H8.365413l-2.885598-5.33496z" class="B"/><g clip-path="url(#B)" transform="matrix(2.5224239999999996 0 0 -2.5224239999999996 -2774.2444760000003 2016.35006)" class="B"><path d="M1106.6654 737.5249c.643 0 .96-.583.96-1.201s-.317-1.196-.96-1.196-.959.577-.959 1.196.312 1.201.959 1.201m0-3.273c1.203 0 2.027.744 2.027 2.079 0 1.327-.824 2.072-2.027 2.072s-2.026-.745-2.026-2.072c0-1.335.822-2.079 2.026-2.079m2.5952 4.0785h1.808c.895 0 1.24-.428 1.24-1.22 0-.473-.274-.817-.743-1.016l.743-1.771h-1.148l-.751 2.247c.097-.018.182-.031.265-.031.294 0 .613.133.613.523 0 .426-.33.426-.482.426h-.524v-3.165h-1.021z"/></g><path d="M39.146864 157.9082v2.16928464h-3.571752384v1.831279824h4.252806864v2.166762216h-6.946755696v-10.107352968h6.946755696v2.164239792h-4.252806864V157.9082z" class="B"/><g clip-path="url(#C)" transform="matrix(2.5224239999999996 0 0 -2.5224239999999996 -2774.2444760000003 2016.35006)" class="B"><path d="M1117.5933 736.3177l.416 1.148h.009l.365-1.148zm-.656-1.995l.402 1.154h1.249l.366-1.154h1.134l-1.413 4.008h-1.28l-1.626-4.008zm7.6274 1.995l.416 1.148h.011l.366-1.148zm-.656-1.995l.403 1.154h1.249l.366-1.154h1.133l-1.413 4.008h-1.28l-1.626-4.008z"/></g><path d="M75.442244 157.9082v2.16928464h-3.571752384v1.831279824h4.252806864v2.166762216h-6.94927812v-10.107352968h6.94927812v2.164239792h-4.252806864V157.9082z" class="B"/><g clip-path="url(#D)" transform="matrix(2.5224239999999996 0 0 -2.5224239999999996 -2774.2444760000003 2016.35006)" class="B"><path d="M1130.7081 738.3304h1.808c.892 0 1.24-.428 1.24-1.22 0-.473-.276-.817-.743-1.016l.743-1.771h-1.15l-.752 2.247c.097-.018.184-.031.266-.031.293 0 .613.133.613.523 0 .426-.329.426-.481.426h-.524v-3.165h-1.02zm5.4558-.8055c.644 0 .958-.583.958-1.201s-.314-1.196-.958-1.196-.961.577-.961 1.196.316 1.201.961 1.201m0-3.273c1.202 0 2.026.744 2.026 2.079 0 1.327-.824 2.072-2.026 2.072s-2.029-.745-2.029-2.072c0-1.335.824-2.079 2.029-2.079m2.4772 1.1282c.27-.155.589-.271.885-.271.174 0 .474.031.474.313 0 .51-1.292.919-1.292 1.94 0 .47.309 1.041 1.245 1.041.303 0 .615-.049.898-.115l.117-.949c-.234.126-.497.204-.746.204-.163 0-.447-.078-.447-.288 0-.588 1.289-.865 1.289-1.912 0-.54-.346-1.091-1.289-1.091-.34 0-.686.065-1.016.136zm3.0543 2.9503h1.891c.243 0 .939-.199.939-1.207 0-.788-.493-1.298-1.183-1.298-.113 0-.23.025-.341.035l-.199.789.214-.037c.273 0 .497.132.497.437 0 .404-.197.439-.43.439h-.367v-3.165h-1.021zm4.1967-2.0127l.416 1.148h.011l.365-1.148zm-.655-1.995l.401 1.154h1.251l.364-1.154h1.136l-1.415 4.008h-1.279l-1.626-4.008zm6.1118.018l-.916-.089c-1.205 0-2.025.744-2.025 2.079 0 1.327.82 2.072 2.025 2.072.296 0 .606-.048.901-.109l.081-.931c-.264.091-.528.162-.802.162-.824 0-1.139-.665-1.139-1.201 0-.619.309-1.196.959-1.196.418 0 .718.079 1.007.161z"/></g><path d="M137.945684 157.9082v2.16928464h-3.576797232v1.831279824h4.25028444v2.166762216h-6.944233272v-10.107352968h6.944233272v2.164239792h-4.25028444V157.9082zm9.01938-3.93975h2.68639v10.10735h-2.68639zm4.60021-.001h3.175731816l3.286718472 6.575959368h.017656968V153.96745h2.363511288v10.107352968h-3.145462728l-3.314465136-6.452360592h-.022701816v6.452360592H151.565274z" class="B"/><g clip-path="url(#E)" transform="matrix(2.5224239999999996 0 0 -2.5224239999999996 -2774.2444760000003 2016.35006)" class="B"><path d="M1165.2032 737.4719h.532c.571 0 .8-.397.8-1.141 0-.59-.281-1.149-.868-1.149h-.464zm-1.022-3.149h1.691c1.171 0 1.729.842 1.729 2.008 0 1.693-1.007 2-1.504 2h-1.916zm5 4.0075v-2.283c0-.578.138-.92.62-.92s.619.342.619.92v2.283h1.066v-2.715c0-.967-.69-1.364-1.685-1.364s-1.688.397-1.688 1.364v2.715zm2.9071-2.9503c.267-.155.587-.271.881-.271.175 0 .472.031.472.313 0 .51-1.287.919-1.287 1.94 0 .47.31 1.041 1.244 1.041.303 0 .613-.049.898-.115l.115-.949c-.231.126-.494.204-.744.204-.164 0-.446-.078-.446-.288 0-.588 1.288-.865 1.288-1.912 0-.54-.348-1.091-1.288-1.091-.343 0-.688.065-1.017.136z"/></g><path d="M188.975294 153.96745h8.006173776v2.166762216h-2.653590048v7.940590752h-2.688903984v-7.940590752H188.975294z" class="B"/><g clip-path="url(#F)" transform="matrix(2.5224239999999996 0 0 -2.5224239999999996 -2774.2444760000003 2016.35006)" class="B"><path d="M1178.2836 738.3304h1.81c.896 0 1.24-.428 1.24-1.22 0-.473-.275-.817-.742-1.016l.742-1.771h-1.149l-.75 2.247c.095-.018.182-.031.263-.031.294 0 .615.133.615.523 0 .426-.331.426-.483.426h-.524v-3.165h-1.022z"/></g><path d="M206.986174 153.96845h2.69397v10.10735h-2.69397zm10.84289 3.93975v2.16928464h-3.574274808v1.831279824h4.257851712v2.166762216h-6.94927812v-10.107352968h6.94927812v2.164239792h-4.257851712V157.9082z" class="B"/><g clip-path="url(#G)" transform="matrix(2.5224239999999996 0 0 -2.5224239999999996 -2774.2444760000003 2016.35006)" class="B"><path d="M1187.0374 735.3801c.27-.155.591-.271.883-.271.174 0 .475.031.475.313 0 .51-1.29.919-1.29 1.94 0 .47.31 1.041 1.242 1.041.306 0 .617-.049.901-.115l.116-.949c-.234.126-.496.204-.747.204-.163 0-.446-.078-.446-.288 0-.588 1.29-.865 1.29-1.912 0-.54-.347-1.091-1.29-1.091-.342 0-.686.065-1.016.136z"/></g><path d="M262.222234 164.0758h2.36099v-2.64099h-2.36099zm-24.44832-10.10835h2.69899368v7.940590752h3.940026288v2.166762216H237.773914zm5.61768 0h8.003651352v2.166762216h-2.6485452v7.940590752h-2.691426408v-7.940590752H243.391594z" class="B"/><g clip-path="url(#H)" transform="matrix(2.5224239999999996 0 0 -2.5224239999999996 -2774.2444760000003 2016.35006)" class="B"><path d="M1200.8787 737.4719h.535c.571 0 .799-.397.799-1.141 0-.59-.281-1.149-.872-1.149h-.462zm-1.021-3.149h1.694c1.168 0 1.726.842 1.726 2.008 0 1.693-1.007 2-1.504 2h-1.916z"/></g><path d="M228.406324 162.2425h2.524946424l-1.81614528 3.80886024h-1.697591352zm-158.65541-35.73874v2.18189676h12.594463032v5.657797032h-3.221135448v-3.892100232H75.52726496v3.892100232h-6.813067224v2.174329488h19.175467248v-2.174329488h-1.952356176V126.50376zm194.83102 5.32287h-3.513736632v-6.152192136H257.5191468v20.787296184h3.549050568v-12.455729712H264.581934z" class="B"/><g clip-path="url(#I)" transform="matrix(2.5224239999999996 0 0 -2.5224239999999996 -2774.2444760000003 2016.35006)" class="B"><path d="M1199.1409 749.0482v.51h-1.404v-.51c0-2.892-1.177-3.907-2.164-4.437l.394-.846c.922.278 1.94 1.11 2.467 2.097.513-.992 1.516-1.831 2.476-2.097l.393.846c-.986.53-2.162 1.545-2.162 4.437m-32.4358-1.388c0 1.176-.89 1.979-2.389 1.979s-2.388-.803-2.388-1.979.894-1.977 2.388-1.977 2.389.801 2.389 1.977m-3.334.004c0 .513.192 1.065.945 1.065s.946-.552.946-1.065-.192-1.063-.946-1.063-.945.55-.945 1.063"/><path d="M1169.5017 744.792h-1.425v-.956h-3.394v.956h-1.404v-2.199c0-.857.372-1.261.833-1.261h5.39zm-4.818-2.454v.632h3.393v-.763l-3.271-.002-.122.133m-9.5907 4.678c.463-.696 1.345-1.287 2.294-1.523l.32.782c-.592.189-1.906 1.016-1.906 2.837v.397h-1.453v-.397c0-1.821-1.318-2.648-1.91-2.837l.322-.782c.95.236 1.857.827 2.333 1.523"/></g><path d="M213.680674 136.25853h3.58688v-10.59421h-3.58688z" class="B"/><g clip-path="url(#J)" transform="matrix(2.5224239999999996 0 0 -2.5224239999999996 -2774.2444760000003 2016.35006)" class="B"><path d="M1181.3693 746.8774c.478-.676 1.363-1.179 2.314-1.358l.322.84c-.592.202-1.909.814-1.909 2.766v.426h-1.451v-.426c0-1.952-1.318-2.564-1.91-2.766l.321-.84c.952.179 1.837.682 2.313 1.358m-26.2958-4.5333v2.134h-1.408v-1.858c0-.856.376-1.261.836-1.261h5.381v.856l-4.686-.002-.123.131m-50.4329 4.8548c0 .451-.12.848-.343 1.168h.637v.859h-1.858v.687h-1.406v-.687h-1.838v-.859h.615c-.224-.32-.343-.717-.343-1.168 0-1.203.847-2.025 2.268-2.025s2.268.822 2.268 2.025m-3.13 0c0 .566.145 1.176.862 1.176s.862-.61.862-1.176-.146-1.178-.862-1.178-.862.61-.862 1.178"/></g><path d="M18.358003 125.6734h-3.589409352v13.492445976H18.358003v-7.448718072h2.837727v-2.174329488h-2.837727zm133.141921-.03832h-3.5944542v13.63370172h3.5944542v-7.219177488h2.822592456v-2.18189676H151.499924z" class="B"/><g clip-path="url(#K)" transform="matrix(2.5224239999999996 0 0 -2.5224239999999996 -2774.2444760000003 2016.35006)" class="B"><path d="M1144.5809 746.3847l.246-.842c1.092.232 2.557.656 3.29 1.676.735-1.02 2.2-1.444 3.295-1.676l.242.842c-1.157.26-2.321.809-2.593 2.073h2.336v.863h-6.57v-.863h2.347c-.272-1.264-1.438-1.813-2.593-2.073m-42.2896-4.0212l-.001 2.07h-1.408v-1.825c0-.857.376-1.261.837-1.261h5.391v.88h-4.698l-.121.136m17.8225 2.8107c1.42 0 2.268.822 2.268 2.025 0 .451-.119.848-.343 1.168h.638v.859h-1.856v.687h-1.409v-.687h-1.837v-.859h.615c-.224-.32-.344-.717-.344-1.168 0-1.203.851-2.025 2.268-2.025m0 .847c-.715 0-.862.609-.862 1.178s.147 1.176.862 1.176.862-.61.862-1.176-.144-1.178-.862-1.178"/></g><path d="M63.111624 125.6734h-3.586886928v10.642106856H63.111624v-4.598378952h2.837727v-2.174329488h-2.837727zm109.0348 3.78796h-2.567827632v2.179374336H172.146424v4.676574096h3.589409352v-10.64462928H172.146424zm-131.743417 8.95531h-5.950398216v-2.653590048h7.675736232v-2.176851912h-1.707681048v-7.140982344H40.403007 24.267060672v2.189464032h12.56167152v4.951518312H22.940265648v2.176851912h7.935545904V138.41667h-6.60875088v2.186941608h12.546536976v5.841933984H40.403007zm176.863547-.78924h-15.7020894v2.184419184h12.115202472v6.639019968H217.266554v-8.818394304z" class="B"/><g clip-path="url(#L)" transform="matrix(2.5224239999999996 0 0 -2.5224239999999996 -2774.2444760000003 2016.35006)" class="B"><path d="M1130.8337 744.8593c-2.226 0-3.302-.762-3.302-1.877s1.076-1.878 3.302-1.878 3.3.762 3.3 1.878-1.074 1.877-3.3 1.877m0-2.876c-1.542 0-1.863.528-1.863 1.018s.321 1.019 1.863 1.019 1.862-.528 1.862-1.019-.32-1.018-1.862-1.018m-9.1337 2.876c-2.225 0-3.3-.762-3.3-1.877s1.075-1.878 3.3-1.878 3.304.762 3.304 1.878-1.076 1.877-3.304 1.877m0-2.876c-1.541 0-1.863.528-1.863 1.018s.322 1.019 1.863 1.019 1.864-.528 1.864-1.019-.32-1.018-1.864-1.018m71.6269 2.6994h-2.711v.646c1.015.213 1.603.924 1.603 1.892 0 .423-.113.797-.324 1.102h.723v.859h-2.002v.686h-1.406v-.686h-1.905v-.859h.705c-.212-.305-.325-.679-.325-1.102 0-.944.556-1.645 1.525-1.877v-.661h-2.014v-.86h6.131v-2.517h1.404v8.242h-1.404zm-3.376 3.64c.718 0 .862-.572.862-1.102s-.144-1.103-.862-1.103-.861.571-.861 1.103.144 1.102.861 1.102"/><path d="M1139.4619 745.4568c2.199 0 3.26.848 3.26 2.082s-1.061 2.081-3.26 2.081-3.258-.846-3.258-2.081 1.06-2.082 3.258-2.082m0 3.299c1.441 0 1.837-.666 1.837-1.196s-.396-1.196-1.837-1.196-1.836.667-1.836 1.196.399 1.196 1.836 1.196"/></g><path d="M90.528914 139.86959h7.804379856v6.603706032h3.571752384V139.86959h7.80690228v-2.171807064H90.528914zm21.91658 0h7.572316848v6.603706032h3.56922996V139.86959h7.574839272v-2.171807064H112.445494z" class="B"/><g clip-path="url(#M)" transform="matrix(2.5224239999999996 0 0 -2.5224239999999996 -2774.2444760000003 2016.35006)" class="B"><path d="M1171.0045 746.3772l.248-.843c1.011.216 2.345.595 3.118 1.461.776-.866 2.109-1.245 3.12-1.461l.246.843c-1.157.259-2.324.809-2.595 2.072h2.334v.864h-6.223v-.864h2.348c-.274-1.263-1.439-1.813-2.596-2.072"/></g><path d="M178.665164 139.89433h7.574839272v6.603706032h3.566707536V139.89433h7.574839272v-2.176851912H178.665164z" class="B"/></svg>