<?xml version="1.0" standalone="no"?>
<!DOCTYPE svg PUBLIC "-//W3C//DTD SVG 20010904//EN"
 "http://www.w3.org/TR/2001/REC-SVG-20010904/DTD/svg10.dtd">
<svg version="1.0" xmlns="http://www.w3.org/2000/svg"
 width="1500.000000pt" height="500.000000pt" viewBox="0 0 1500.000000 500.000000"
 preserveAspectRatio="xMidYMid meet">

<g transform="translate(0.000000,500.000000) scale(0.100000,-0.100000)"
fill="#000000" stroke="none">
<path d="M5910 2500 l0 -1590 1590 0 1590 0 0 1590 0 1590 -1590 0 -1590 0 0
-1590z m3140 0 l0 -1550 -1550 0 -1550 0 0 1550 0 1550 1550 0 1550 0 0 -1550z"/>
<path d="M7805 3558 c-22 -69 -24 -93 -8 -108 15 -13 16 -13 5 1 -8 11 -8 27
2 67 8 29 12 52 10 52 -3 0 -6 -6 -9 -12z"/>
<path d="M7974 3562 c2 -4 -3 -39 -13 -76 -18 -68 -39 -94 -64 -80 -9 6 -9 4
1 -8 10 -12 9 -24 -3 -59 -25 -77 -56 -191 -52 -195 2 -2 11 22 21 54 64 210
55 192 92 192 l34 0 0 90 c0 57 -4 90 -11 90 -5 0 -8 -4 -5 -8z"/>
<path d="M7435 3253 c-34 -17 -99 -68 -162 -127 l-43 -38 21 -30 c31 -43 62
-54 91 -34 l23 17 -27 -6 c-72 -18 -88 47 -25 104 22 20 42 34 45 33 3 -2 9 4
15 13 5 9 24 23 43 31 19 8 34 19 34 24 0 11 36 8 47 -5 5 -4 2 -5 -6 0 -11 6
-13 3 -9 -13 4 -12 2 -25 -4 -28 -5 -3 -7 -12 -4 -20 3 -7 1 -16 -4 -19 -6 -4
-10 -11 -10 -18 0 -18 26 23 40 65 11 30 11 39 1 52 -17 20 -28 20 -66 -1z"/>
<path d="M8170 3240 c-12 -22 -31 -8 233 -175 128 -82 139 -58 -88 -200 -85
-53 -155 -100 -155 -104 0 -4 8 -15 18 -24 16 -14 31 -7 202 102 180 113 185
117 188 152 l3 36 -186 116 c-103 65 -191 117 -196 117 -4 0 -13 -9 -19 -20z"/>
<path d="M6482 3138 l-182 -113 0 -42 0 -41 183 -115 c166 -104 184 -113 200
-99 29 26 47 11 -205 168 -70 43 -127 82 -127 85 -1 3 74 53 165 110 92 57
171 107 177 110 10 7 -8 49 -21 49 -5 0 -90 -51 -190 -112z"/>
<path d="M7633 3192 c-17 -9 -70 -50 -117 -90 l-86 -72 15 -30 c8 -16 25 -34
36 -41 23 -12 69 -4 69 12 0 6 -7 6 -20 -1 -15 -8 -24 -6 -40 10 -31 31 -25
49 33 102 43 41 143 108 159 108 9 0 5 -75 -5 -88 -5 -7 -7 -15 -5 -18 3 -3
16 16 28 42 35 71 2 104 -67 66z"/>
<path d="M7437 3117 c-3 -8 1 -14 9 -14 16 0 19 13 5 21 -5 3 -11 0 -14 -7z"/>
<path d="M7766 3087 c-14 -23 -26 -49 -26 -58 0 -10 -21 -30 -49 -47 -27 -17
-77 -57 -111 -89 l-63 -59 32 -36 c29 -33 34 -36 61 -27 16 6 35 18 42 26 11
14 8 13 -21 -1 -32 -17 -34 -17 -27 -1 6 16 4 16 -10 4 -14 -11 -18 -11 -30 6
-8 10 -14 24 -14 30 0 15 34 47 43 40 4 -3 5 -2 2 1 -2 4 14 21 37 39 40 32
41 33 61 14 11 -10 24 -16 29 -13 4 3 11 -2 14 -11 6 -14 8 -14 20 4 8 10 18
31 24 46 l11 28 -25 -17 c-30 -19 -42 -21 -28 -3 6 6 13 30 17 52 8 45 30 85
47 85 6 0 17 -8 24 -17 12 -16 13 -15 14 12 0 25 -4 30 -24 31 -17 1 -30 -9
-50 -39z"/>
<path d="M7640 3050 c-9 -6 -10 -10 -3 -10 6 0 15 5 18 10 8 12 4 12 -15 0z"/>
<path d="M6780 1797 c0 -130 5 -147 47 -147 26 0 31 18 8 26 -12 5 -15 29 -15
125 0 112 -1 119 -20 119 -19 0 -20 -7 -20 -123z"/>
<path d="M7194 1906 c-3 -9 -4 -29 -2 -46 4 -29 4 -29 -36 -24 -53 8 -77 -17
-83 -83 -4 -39 -1 -53 17 -75 23 -30 66 -37 89 -15 11 10 14 10 18 0 3 -7 13
-13 24 -13 19 0 19 7 17 132 -3 117 -5 133 -21 136 -9 2 -20 -4 -23 -12z m-9
-161 c0 -60 0 -60 -29 -60 -24 0 -31 5 -37 30 -8 26 -4 67 8 88 3 5 17 7 31 5
26 -3 27 -6 27 -63z"/>
<path d="M6460 1860 c0 -11 -7 -20 -15 -20 -8 0 -15 -7 -15 -15 0 -8 7 -15 15
-15 12 0 15 -13 15 -58 0 -74 18 -102 66 -102 24 0 34 5 34 15 0 9 -9 15 -25
15 -24 0 -25 2 -25 65 0 58 2 65 20 65 11 0 20 7 20 15 0 8 -9 15 -20 15 -13
0 -20 7 -20 20 0 15 -7 20 -25 20 -18 0 -25 -5 -25 -20z"/>
<path d="M6298 1829 c-11 -6 -18 -22 -18 -40 0 -26 6 -33 45 -50 33 -14 45
-26 45 -41 0 -19 -4 -20 -45 -15 -48 7 -68 -6 -36 -22 33 -18 89 -13 111 9 35
35 23 65 -37 91 -52 22 -52 44 0 44 19 0 39 4 43 8 23 23 -73 37 -108 16z"/>
<path d="M6580 1828 c0 -23 53 -173 62 -177 12 -4 -22 -41 -39 -41 -7 0 -13
-7 -13 -15 0 -21 33 -19 63 5 18 14 35 50 58 118 17 53 34 103 37 110 2 7 -5
12 -20 12 -22 0 -26 -8 -43 -75 -10 -42 -21 -72 -25 -68 -4 5 -15 38 -25 76
-13 53 -21 67 -36 67 -10 0 -19 -6 -19 -12z"/>
<path d="M6891 1814 c-14 -18 -21 -41 -21 -69 0 -62 29 -95 85 -95 24 0 47 6
54 14 14 17 0 29 -23 20 -26 -10 -63 4 -69 26 -5 18 0 20 54 20 58 0 59 0 59
29 0 46 -34 81 -80 81 -30 0 -43 -6 -59 -26z m93 -20 c11 -29 6 -34 -34 -34
-43 0 -45 2 -30 31 13 23 55 25 64 3z"/>
<path d="M8010 1500 c0 -11 -7 -20 -15 -20 -8 0 -15 -7 -15 -15 0 -8 7 -15 15
-15 12 0 15 -13 15 -58 0 -74 18 -102 66 -102 24 0 34 5 34 15 0 9 -9 15 -25
15 -24 0 -25 2 -25 65 0 58 2 65 20 65 11 0 20 7 20 15 0 8 -9 15 -20 15 -13
0 -20 7 -20 20 0 15 -7 20 -25 20 -18 0 -25 -5 -25 -20z"/>
<path d="M6295 1455 c-35 -35 -35 -106 0 -141 20 -20 33 -25 68 -22 29 2 42 8
42 18 0 11 -9 14 -30 12 -46 -3 -60 11 -60 63 0 52 15 68 57 61 30 -6 48 11
27 25 -28 17 -79 10 -104 -16z"/>
<path d="M6465 1455 c-33 -32 -35 -100 -4 -139 28 -36 89 -37 124 -1 33 32 35
100 4 139 -28 36 -89 37 -124 1z m97 -30 c8 -17 8 -37 2 -63 -8 -32 -13 -37
-39 -37 -26 0 -31 5 -38 35 -12 50 5 90 38 90 17 0 29 -8 37 -25z"/>
<path d="M6660 1385 c0 -88 1 -95 20 -95 18 0 20 7 20 68 0 70 10 92 42 92 16
0 18 -10 18 -80 0 -79 0 -80 26 -80 25 0 25 1 23 69 -2 75 3 91 31 91 24 0 30
-19 30 -96 0 -57 2 -64 20 -64 18 0 20 7 20 69 0 91 -11 121 -46 121 -15 0
-35 -7 -44 -15 -15 -14 -18 -14 -30 0 -15 18 -66 20 -74 3 -5 -10 -7 -10 -12
0 -3 6 -14 12 -25 12 -17 0 -19 -8 -19 -95z"/>
<path d="M6960 1350 c0 -123 1 -130 20 -130 17 0 20 7 20 39 l0 40 35 -6 c54
-9 85 24 85 92 0 65 -20 95 -64 95 -17 0 -37 -5 -44 -12 -9 -9 -12 -9 -12 0 0
7 -9 12 -20 12 -19 0 -20 -7 -20 -130z m110 81 c22 -43 5 -111 -28 -111 -29 0
-42 21 -42 65 0 23 5 46 12 53 18 18 46 14 58 -7z"/>
<path d="M7195 1455 c-19 -18 -25 -35 -25 -70 0 -59 32 -95 85 -95 52 0 85 36
85 93 0 63 -29 97 -81 97 -29 0 -47 -7 -64 -25z m97 -30 c8 -17 8 -37 2 -63
-8 -32 -13 -37 -39 -37 -26 0 -31 5 -38 35 -12 50 5 90 38 90 17 0 29 -8 37
-25z"/>
<path d="M7390 1385 c0 -88 2 -95 20 -95 17 0 19 8 22 71 3 75 17 99 52 86 13
-5 16 -21 16 -82 0 -68 2 -75 20 -75 18 0 20 7 20 83 0 51 -5 88 -12 95 -15
15 -53 16 -79 2 -13 -7 -19 -7 -19 0 0 5 -9 10 -20 10 -19 0 -20 -7 -20 -95z"/>
<path d="M7611 1454 c-31 -39 -29 -107 4 -139 27 -28 94 -35 114 -12 16 20 4
26 -36 20 -28 -5 -39 -2 -49 12 -23 31 -17 35 46 35 59 0 60 0 60 29 0 46 -34
81 -80 81 -30 0 -43 -6 -59 -26z m93 -20 c11 -29 6 -34 -34 -34 -43 0 -45 2
-30 31 13 23 55 25 64 3z"/>
<path d="M7800 1385 c0 -88 2 -95 20 -95 17 0 19 8 22 71 3 75 17 99 52 86 13
-5 16 -21 16 -82 0 -68 2 -75 20 -75 18 0 20 7 20 76 0 41 -5 84 -10 95 -12
21 -50 25 -81 9 -13 -7 -19 -7 -19 0 0 5 -9 10 -20 10 -19 0 -20 -7 -20 -95z"/>
<path d="M8148 1469 c-11 -6 -18 -22 -18 -40 0 -26 6 -33 45 -50 33 -14 45
-26 45 -41 0 -19 -4 -20 -45 -15 -48 7 -68 -6 -36 -22 33 -18 89 -13 111 9 37
37 19 76 -45 97 -43 14 -39 38 7 38 20 0 40 4 44 8 23 23 -73 37 -108 16z"/>
</g>
</svg>
